<?xml version="1.0" standalone="no"?>
<!DOCTYPE svg PUBLIC "-//W3C//DTD SVG 20010904//EN"
 "http://www.w3.org/TR/2001/REC-SVG-20010904/DTD/svg10.dtd">
<svg version="1.0" xmlns="http://www.w3.org/2000/svg"
 width="967.000000pt" height="1280.000000pt" viewBox="0 0 967.000000 1280.000000"
 preserveAspectRatio="xMidYMid meet">
<metadata>
Created by potrace 1.15, written by Peter Selinger 2001-2017
</metadata>
<g transform="translate(0.000000,1280.000000) scale(0.100000,-0.100000)"
fill="#000000" stroke="none">
<path d="M3635 12789 c-16 -5 -61 -7 -100 -4 -41 4 -89 1 -115 -5 -53 -14
-174 -25 -465 -43 -156 -10 -218 -17 -241 -29 -17 -9 -62 -22 -99 -29 -39 -6
-96 -26 -132 -45 -39 -21 -78 -34 -101 -34 -42 0 -110 -29 -159 -66 l-32 -24
-133 34 c-73 19 -203 47 -288 62 -134 25 -181 28 -345 29 -185 0 -192 -1 -246
-26 -119 -56 -532 -313 -604 -376 -75 -66 -80 -110 -35 -289 38 -151 52 -259
54 -405 l1 -117 -62 -64 c-45 -47 -63 -75 -69 -103 -4 -25 -23 -56 -55 -91
-55 -61 -71 -90 -87 -155 -7 -26 -28 -80 -47 -120 -19 -40 -35 -88 -35 -105 0
-18 -15 -64 -34 -102 -22 -48 -35 -92 -40 -139 -4 -37 -18 -101 -32 -141 -19
-57 -24 -90 -23 -150 1 -53 -3 -89 -14 -116 -10 -23 -17 -65 -17 -105 0 -42
-7 -85 -20 -119 -13 -34 -20 -76 -20 -121 0 -38 -7 -88 -15 -111 -17 -49 -19
-110 -5 -162 8 -29 7 -48 -6 -88 -20 -62 -15 -150 13 -204 16 -32 18 -45 9
-85 -7 -38 -6 -61 8 -111 10 -34 19 -99 20 -144 2 -56 10 -96 25 -129 14 -32
21 -69 21 -107 0 -38 9 -84 25 -128 14 -38 25 -90 25 -115 0 -28 12 -76 29
-120 16 -40 34 -99 40 -130 12 -65 32 -109 72 -155 16 -18 29 -39 29 -47 0
-29 43 -106 84 -153 23 -26 54 -67 68 -92 14 -25 45 -67 69 -93 l42 -49 -12
-463 c-7 -255 -10 -479 -6 -497 9 -40 40 -102 71 -144 29 -37 30 -65 5 -88
-31 -28 -69 -126 -85 -216 -23 -134 -39 -502 -32 -725 4 -110 7 -229 6 -265 0
-36 -1 -162 -2 -280 -2 -144 1 -238 10 -284 12 -64 12 -70 -7 -90 -27 -29 -55
-130 -45 -164 5 -15 9 -209 10 -432 1 -223 6 -448 12 -500 7 -61 9 -200 5
-388 -6 -293 -6 -294 -29 -302 -30 -12 -34 -26 -44 -197 -5 -81 -14 -230 -21
-330 l-12 -182 32 -37 c41 -47 38 -70 -10 -66 -57 4 -61 -8 -70 -206 -13 -302
-11 -497 7 -564 15 -58 15 -61 -5 -80 -16 -14 -21 -31 -21 -66 0 -62 56 -221
103 -294 58 -91 102 -105 355 -118 102 -5 202 -15 236 -25 32 -8 127 -47 210
-86 223 -106 296 -130 397 -136 101 -6 152 4 294 58 55 21 134 47 175 58 91
25 344 73 499 96 113 16 114 16 140 -4 55 -44 128 -81 171 -86 77 -10 89 -14
124 -45 44 -39 87 -56 164 -65 42 -5 86 -19 135 -45 47 -24 93 -40 132 -44 33
-4 79 -16 102 -27 23 -11 81 -27 129 -34 48 -8 97 -21 109 -29 38 -25 126 -46
192 -46 48 0 76 -6 113 -25 34 -17 66 -25 102 -25 29 0 85 -8 123 -16 39 -9
106 -18 150 -19 44 -2 143 -9 220 -15 77 -7 183 -14 235 -15 52 -2 125 -6 161
-10 48 -6 80 -3 121 9 31 9 78 16 105 16 26 0 64 5 83 11 19 6 85 14 145 18
85 6 120 13 155 31 25 13 77 31 117 41 40 10 90 27 112 39 22 11 51 20 64 20
40 0 117 27 157 55 21 14 66 33 99 41 64 14 111 37 170 79 19 14 43 25 55 25
12 0 48 16 81 35 59 34 88 49 172 86 23 10 60 35 82 54 l40 36 258 -36 c412
-58 599 -95 893 -180 158 -46 308 -57 410 -31 73 19 163 66 248 128 113 84
174 100 517 138 108 12 171 36 194 72 30 47 7 518 -34 708 -8 36 -19 139 -25
229 -11 165 -34 375 -47 421 -4 14 -8 189 -8 390 -2 288 -5 377 -17 420 l-15
55 29 33 29 34 -8 146 c-4 81 -7 244 -7 362 1 192 4 221 23 274 12 34 21 83
21 116 0 41 8 74 27 116 19 41 27 79 30 133 3 43 13 96 24 123 11 27 19 70 19
103 0 30 9 82 20 114 10 32 22 89 26 127 4 38 17 95 30 126 17 40 24 77 24
121 0 41 7 80 19 108 21 49 38 219 51 504 9 175 23 357 38 480 5 38 5 85 1
105 -6 24 -3 57 8 104 13 55 14 83 7 139 -6 38 -7 93 -3 121 9 67 -7 390 -21
416 -8 15 -8 38 0 81 9 47 8 73 -2 112 -7 29 -13 104 -14 167 -4 232 -18 403
-37 437 -11 22 -17 54 -17 100 0 43 -8 90 -20 126 -12 34 -20 82 -20 121 0 40
-7 84 -19 113 -10 26 -21 82 -25 123 -4 41 -16 95 -27 120 -11 25 -24 80 -29
124 -7 54 -17 92 -35 122 -15 25 -31 73 -36 107 -6 34 -23 89 -40 123 -16 33
-29 72 -29 86 0 14 -15 56 -34 94 -19 38 -44 94 -55 125 -12 30 -38 75 -58 98
-36 42 -36 45 -43 154 -5 79 -3 144 8 222 9 65 15 194 16 315 l1 205 -33 68
-34 68 60 63 c39 40 64 76 71 102 6 21 18 127 26 234 8 107 20 238 25 290 15
147 38 442 45 575 l7 120 95 170 c53 94 124 211 158 260 137 198 145 260 39
307 -66 29 -183 34 -514 24 -251 -8 -324 -6 -491 8 -218 20 -485 22 -569 6
-30 -6 -113 -26 -185 -44 -298 -78 -791 -139 -1270 -156 -132 -5 -280 -16
-330 -24 -108 -19 -174 -20 -212 -4 -15 6 -87 14 -159 17 l-131 6 -34 34 c-19
19 -62 47 -96 63 -39 17 -79 45 -105 75 -28 29 -66 57 -108 76 -36 16 -81 42
-100 57 -51 40 -87 56 -155 70 -33 7 -85 25 -115 40 -30 15 -86 34 -125 43
-38 8 -95 24 -126 35 -30 12 -80 24 -110 27 -29 4 -78 16 -107 27 -43 17 -68
20 -140 16 -64 -4 -96 -1 -122 10 -21 9 -73 17 -130 18 -52 1 -122 7 -155 12
-36 6 -80 6 -110 1 -31 -6 -63 -5 -85 1 -43 12 -124 12 -165 -1z m120 -45 c14
-6 9 -14 -24 -48 -22 -23 -60 -77 -83 -121 l-43 -80 -65 0 c-78 0 -83 9 -47
88 51 112 181 192 262 161z m-235 -11 c0 -3 -8 -15 -17 -26 -10 -10 -40 -62
-68 -115 -44 -85 -55 -98 -87 -111 -42 -15 -106 -8 -114 14 -8 20 37 114 76
158 42 48 82 69 145 78 28 3 53 7 58 8 4 0 7 -2 7 -6z m490 0 c0 -4 -17 -24
-37 -45 -21 -22 -58 -69 -83 -106 l-45 -67 -55 -3 c-37 -2 -62 2 -75 12 -20
15 -20 15 4 61 29 55 111 131 155 144 37 11 136 14 136 4z m234 -19 c12 -5 5
-19 -37 -71 -108 -135 -114 -141 -172 -154 -47 -10 -57 -10 -79 5 -34 22 -33
46 7 97 42 55 95 97 143 114 41 15 111 19 138 9z m-994 -42 c-11 -15 -38 -68
-59 -117 -30 -70 -46 -94 -70 -109 -34 -20 -107 -24 -124 -7 -13 13 25 131 54
173 33 45 115 88 172 88 l48 0 -21 -28z m1269 12 c3 -4 1 -9 -6 -11 -27 -10
-87 -66 -140 -130 -30 -37 -62 -72 -70 -77 -21 -12 -93 -1 -110 17 -13 13 -13
19 2 46 38 74 124 150 184 162 39 8 130 4 140 -7z m-1502 -24 c-22 -26 -63
-120 -93 -215 -11 -35 -73 -62 -117 -51 -26 6 -27 9 -21 49 11 74 58 159 108
195 53 38 81 51 119 51 l29 1 -25 -30z m-194 13 c4 -3 -5 -22 -19 -41 -32 -41
-57 -105 -74 -185 -13 -66 -27 -77 -94 -77 -52 0 -52 0 -35 82 23 108 73 175
159 212 39 17 54 19 63 9z m1908 -38 c6 -5 -2 -15 -23 -27 -18 -11 -72 -58
-120 -104 -78 -77 -89 -84 -115 -78 -41 10 -83 33 -83 45 0 6 33 44 73 84 51
51 84 75 112 83 41 11 135 9 156 -3z m-2136 -32 c-31 -75 -45 -118 -55 -173
-6 -36 -13 -72 -16 -81 -6 -22 -47 -39 -96 -39 l-41 0 7 62 c8 82 44 157 93
196 63 49 122 68 108 35z m2354 -34 l34 -15 -50 -32 c-28 -18 -59 -42 -69 -54
-45 -50 -96 -78 -144 -78 -44 0 -53 4 -109 47 -3 2 15 24 40 49 42 44 95 78
149 95 34 11 107 5 149 -12z m-3499 -19 c10 -6 11 -10 3 -10 -21 0 -89 -67
-141 -138 -79 -108 -129 -202 -193 -364 -84 -212 -97 -230 -119 -160 -35 107
-51 132 -104 159 -94 46 -196 166 -181 212 21 67 373 260 539 296 73 16 175
18 196 5z m917 -48 c-9 -21 -21 -77 -27 -123 -17 -126 -18 -129 -64 -150 -67
-30 -83 -26 -90 24 -14 95 32 216 99 257 35 21 86 40 94 34 2 -2 -4 -21 -12
-42z m-514 -16 c87 -19 161 -37 164 -40 13 -12 -31 -46 -81 -62 -70 -23 -117
-48 -141 -74 -11 -13 -49 -36 -85 -52 -36 -16 -87 -47 -115 -68 -27 -21 -76
-50 -107 -63 -32 -14 -79 -46 -106 -71 -27 -25 -53 -46 -58 -46 -5 0 -40 -18
-77 -39 -37 -22 -67 -37 -67 -33 0 3 50 107 111 231 96 195 118 232 168 281
91 91 125 94 394 36z m3304 9 c81 -24 84 -38 13 -64 -33 -12 -92 -47 -132 -77
-63 -48 -77 -55 -107 -50 -44 7 -81 32 -81 55 0 24 64 87 115 113 79 41 116
46 192 23z m-1332 -39 c52 -1 99 -6 112 -14 27 -15 103 -16 153 -1 31 10 42 8
78 -10 31 -16 60 -21 114 -21 49 0 90 -7 127 -21 44 -16 67 -19 117 -14 55 6
67 5 94 -15 22 -16 51 -24 98 -28 55 -4 73 -10 99 -33 29 -25 115 -59 149 -59
8 0 36 -20 64 -45 48 -42 49 -45 27 -50 -24 -7 -437 33 -907 86 -421 47 -456
50 -630 48 l-165 -2 -50 31 c-27 18 -82 40 -121 50 l-70 18 45 27 c42 27 48
28 100 19 47 -9 66 -7 116 10 49 16 66 18 96 9 54 -16 109 -13 154 9 28 14 50
17 75 13 19 -4 76 -7 125 -7z m-1692 -143 c-3 -68 -11 -129 -19 -144 -17 -35
-100 -76 -123 -62 -32 20 -22 133 21 222 18 38 93 101 119 101 4 0 5 -53 2
-117z m3225 67 c53 -24 102 -58 102 -70 0 -6 -12 -13 -27 -16 -33 -8 -137 -59
-175 -85 -50 -36 -147 -18 -197 35 l-24 26 23 25 c49 52 160 103 225 104 17 0
49 -8 73 -19z m-2373 -50 c83 -14 242 -67 293 -98 35 -22 50 -41 79 -104 20
-42 40 -75 44 -72 4 2 13 21 19 42 6 20 18 54 27 75 15 35 19 37 60 37 101 0
843 -78 1023 -108 92 -15 187 -17 758 -17 749 0 672 12 693 -105 14 -80 21
-95 42 -87 16 6 31 46 42 109 3 22 18 50 36 68 l31 30 316 0 c406 0 542 10
723 55 222 54 706 104 724 74 5 -7 8 -46 6 -86 -2 -73 8 -92 28 -54 6 11 25
58 42 104 17 47 36 90 43 96 8 7 140 6 406 -4 217 -7 573 -16 790 -20 217 -4
397 -8 398 -10 2 -2 -32 -52 -76 -112 -101 -137 -180 -268 -227 -374 -52 -120
-58 -127 -110 -135 -48 -7 -95 -36 -95 -59 0 -9 19 -16 55 -20 l55 -7 0 -72
c0 -39 -5 -123 -10 -186 -23 -258 -31 -364 -40 -545 -13 -278 -10 -266 -92
-331 -47 -38 -74 -68 -85 -95 -28 -71 -79 -93 -161 -70 -31 9 -82 -2 -82 -18
1 -31 43 -48 140 -56 98 -9 129 -22 166 -70 l27 -36 -8 -167 c-5 -92 -9 -264
-10 -382 0 -118 -6 -246 -12 -285 -17 -105 -23 -393 -12 -630 5 -115 10 -217
11 -225 0 -8 -4 -118 -11 -245 -18 -327 -25 -340 -201 -351 -121 -8 -150 -16
-150 -43 0 -26 21 -32 98 -25 80 7 99 -6 128 -83 12 -34 38 -67 86 -113 l68
-65 -11 -515 c-12 -598 -3 -554 -114 -582 -79 -20 -94 -30 -76 -52 15 -18 54
-26 135 -29 56 -2 61 -4 79 -34 27 -48 44 -163 56 -391 14 -258 14 -408 0
-430 -8 -12 -2 -79 21 -257 36 -272 39 -370 16 -433 -8 -24 -19 -73 -22 -110
-4 -37 -18 -92 -32 -122 -21 -47 -23 -64 -18 -121 6 -57 4 -69 -14 -92 -34
-44 -41 -84 -26 -145 15 -54 14 -54 -14 -94 -39 -53 -46 -96 -27 -153 16 -45
16 -46 -12 -78 -15 -17 -33 -42 -40 -54 -14 -27 -14 -100 0 -141 9 -26 7 -36
-14 -69 -31 -50 -38 -87 -25 -147 9 -44 8 -52 -17 -97 -19 -36 -26 -64 -26
-104 0 -30 2 -58 4 -62 3 -5 -5 -33 -19 -63 -13 -30 -23 -70 -24 -89 0 -21
-10 -47 -28 -70 -36 -45 -52 -91 -52 -146 0 -37 -5 -46 -34 -68 -33 -26 -46
-59 -61 -150 -4 -26 -19 -52 -48 -81 -35 -37 -47 -43 -69 -39 -20 4 -28 1 -28
-8 0 -17 63 -59 89 -59 10 0 21 -7 25 -15 10 -27 54 -17 96 21 57 51 60 36 5
-20 -43 -45 -50 -66 -20 -66 7 0 30 19 49 43 l36 42 -6 -42 c-6 -40 -5 -43 22
-53 15 -6 38 -9 50 -6 13 4 26 1 29 -4 15 -24 25 5 20 58 l-4 57 12 -59 c15
-73 37 -87 37 -24 l0 43 27 -47 c21 -39 29 -45 43 -38 10 5 20 7 23 3 3 -3 13
-3 21 0 12 5 14 12 7 31 -10 23 -9 24 19 9 22 -11 34 -11 50 -3 11 6 20 13 20
17 0 3 -12 41 -27 84 l-26 78 17 81 c11 51 16 98 12 124 -6 36 -3 50 20 85 15
22 31 41 35 41 4 0 13 -24 19 -52 23 -102 28 -243 18 -460 -7 -152 -7 -285 0
-445 10 -213 14 -238 51 -388 45 -183 56 -245 44 -245 -4 0 -30 7 -57 15 -27
8 -74 15 -105 14 -58 0 -144 -27 -142 -44 0 -5 22 -13 48 -16 26 -4 64 -12 83
-19 19 -7 47 -17 63 -23 85 -30 152 -232 98 -298 -16 -20 -28 -24 -67 -23 -40
1 -81 18 -249 104 -110 56 -211 112 -224 124 -12 11 -52 55 -87 97 -35 42 -77
82 -93 88 -18 8 -35 27 -46 51 -33 73 -99 116 -160 104 -65 -12 -92 -67 -70
-141 13 -42 12 -48 -15 -111 l-28 -67 -66 -12 c-107 -20 -114 -32 -19 -33 65
0 98 -6 163 -30 93 -34 99 -35 125 -16 17 12 14 15 -43 36 -34 13 -62 28 -62
35 0 24 46 53 95 60 28 4 58 14 68 22 9 9 19 14 21 12 10 -10 38 -339 33 -387
-7 -64 -21 -84 -53 -76 -47 12 -78 -27 -138 -169 -12 -29 -27 -43 -59 -57 -41
-18 -44 -18 -182 6 -77 13 -216 35 -309 49 -94 14 -222 39 -285 54 -162 41
-384 72 -741 106 -91 8 -213 20 -271 25 -111 11 -334 67 -402 102 -43 21 -72
63 -82 116 -9 49 -43 114 -58 109 -6 -2 -19 -40 -27 -85 -9 -46 -23 -89 -31
-98 -10 -10 -44 -17 -100 -20 -77 -5 -174 -2 -759 26 -257 13 -581 13 -650 0
-30 -5 -203 -15 -385 -21 l-329 -11 -19 23 c-10 12 -25 48 -34 81 -9 32 -22
58 -28 58 -7 0 -22 -26 -34 -57 -41 -107 -52 -116 -231 -177 -110 -37 -130
-40 -505 -77 -296 -28 -524 -64 -635 -99 -52 -17 -165 -43 -250 -60 -85 -16
-189 -36 -230 -45 -88 -19 -150 -21 -179 -6 -11 6 -73 59 -136 116 -112 101
-118 105 -162 105 -37 0 -50 5 -74 31 -15 17 -84 141 -152 277 -110 221 -126
247 -150 250 -32 4 -41 -12 -57 -98 -15 -75 -35 -120 -54 -120 -19 0 -80 -70
-106 -119 -30 -59 -77 -109 -110 -116 -19 -4 -44 0 -75 14 -53 23 -69 54 -78
142 -8 85 3 99 102 129 87 26 117 50 64 50 -16 0 -51 -7 -76 -16 -26 -9 -53
-14 -61 -11 -7 3 -16 25 -19 49 -3 23 -11 72 -17 108 -14 77 -6 259 16 370 21
102 52 208 65 216 6 3 81 17 167 30 203 31 212 33 212 49 0 10 -30 13 -146 12
l-146 -2 -24 28 c-43 50 -66 147 -72 305 -4 114 -1 157 13 215 18 74 74 194
103 220 11 10 61 19 150 26 132 12 182 22 182 40 0 15 -57 21 -191 21 -146 0
-158 6 -178 77 -20 72 -13 300 14 455 29 166 31 218 9 353 -10 65 -15 157 -15
260 1 114 -4 200 -19 300 -21 150 -25 225 -11 225 5 0 30 -12 55 -26 43 -24
55 -26 130 -22 54 3 90 10 106 21 27 18 22 22 -49 32 -24 3 -77 21 -117 40
l-74 34 0 603 c0 865 21 1137 95 1198 13 11 52 17 134 21 119 5 165 18 155 44
-8 21 -41 28 -109 26 -52 -2 -63 1 -82 21 -11 13 -27 42 -34 66 -9 31 -30 59
-82 107 l-70 65 7 64 c12 121 25 363 32 606 3 135 9 272 13 305 l6 59 55 16
c70 20 77 44 25 97 -43 44 -67 118 -69 215 -2 99 12 108 149 108 109 0 155 10
155 34 0 30 -32 40 -146 44 -69 3 -117 9 -123 16 -36 44 -30 398 9 508 18 51
20 83 21 270 1 288 11 440 33 473 10 15 45 39 82 56 49 22 65 33 62 46 -2 11
-14 19 -33 21 -16 2 -38 10 -49 18 -11 8 -42 14 -68 14 -45 0 -47 1 -52 33 -3
17 -10 192 -16 387 -6 195 -15 407 -20 470 -15 178 -18 164 55 239 41 42 70
83 80 111 9 25 25 55 37 68 20 20 30 22 95 20 55 -2 76 1 88 13 14 14 14 17
-6 35 -18 16 -39 20 -138 22 -105 3 -121 6 -146 27 l-29 22 39 21 c50 25 84
61 94 98 5 20 21 37 54 54 61 34 94 66 107 105 8 24 22 37 53 51 23 10 63 40
89 65 52 52 88 64 165 54 44 -6 50 -4 76 23 18 19 31 45 34 71 5 33 12 45 34
56 15 8 43 34 63 58 29 36 47 47 96 60 48 14 69 27 107 67 27 29 56 50 68 50
36 0 122 49 150 85 19 26 34 35 56 35 42 0 91 22 135 63 28 25 55 38 95 46 40
8 69 23 99 48 33 28 55 38 97 44 30 4 75 18 101 32 26 13 74 27 107 31 33 4
83 11 110 15 73 12 162 12 230 1z m-1056 -47 c-5 -21 -9 -76 -9 -121 0 -60 -5
-92 -17 -112 -20 -35 -70 -63 -103 -59 -31 5 -43 50 -34 129 10 87 49 148 119
184 47 25 54 21 44 -21z m3685 -73 c20 -14 36 -27 36 -30 0 -4 -26 -11 -58
-18 -75 -16 -306 -16 -296 -1 3 6 38 27 78 46 63 30 78 34 137 31 50 -3 75 -9
103 -28z m-3900 -138 c-2 -148 -10 -170 -75 -196 -72 -29 -79 -22 -79 77 1 72
17 123 55 173 23 31 79 74 95 74 3 0 4 -58 4 -128z m-1009 74 c26 -11 48 -36
88 -98 30 -46 75 -100 100 -121 47 -39 67 -80 67 -142 0 -25 -8 -35 -51 -60
-28 -16 -68 -48 -89 -71 -36 -39 -128 -99 -137 -90 -3 2 -9 67 -14 143 -10
163 -15 195 -40 288 -23 85 -24 128 -3 149 19 20 35 20 79 2z m809 -88 c-5
-13 -8 -75 -7 -137 l2 -115 -35 -33 c-20 -18 -44 -33 -55 -33 -18 0 -19 8 -19
121 0 66 5 129 11 140 11 21 86 79 101 79 5 0 6 -10 2 -22z m-171 -147 c7 -58
-9 -195 -29 -237 -17 -35 -65 -74 -91 -74 -10 0 -13 34 -13 139 l0 138 53 36
c28 20 57 36 63 36 6 1 14 -16 17 -38z m-190 -206 c-2 -121 -7 -141 -56 -192
-55 -58 -59 -50 -73 153 l-6 90 38 30 c57 44 78 54 89 43 6 -6 9 -59 8 -124z
m-177 -146 c5 -80 3 -127 -5 -152 -12 -36 -61 -87 -84 -87 -18 0 -61 229 -49
260 16 40 109 117 124 102 4 -4 10 -59 14 -123z m424 85 c0 -25 -40 -74 -60
-74 -14 0 -13 4 16 60 27 52 44 57 44 14z m-606 -208 c9 -43 16 -107 16 -141
0 -57 -3 -66 -31 -94 -50 -50 -46 -56 -83 128 -28 139 -27 146 31 186 44 30
45 29 67 -79z m-155 -123 c24 -90 31 -132 31 -195 0 -61 -3 -71 -31 -103 -34
-38 -49 -44 -49 -19 0 9 -19 63 -42 121 l-42 105 19 35 c19 35 78 93 95 93 5
0 14 -17 19 -37z m-122 -274 c34 -98 41 -184 19 -228 l-17 -32 -18 23 c-29 39
-99 151 -112 180 -16 36 -7 66 37 117 45 52 53 47 91 -60z m213 -59 c0 -5 -18
-37 -40 -71 -22 -34 -45 -81 -51 -103 -12 -41 -6 -605 10 -1030 l7 -189 28
-24 28 -24 -15 -52 c-23 -75 -27 -135 -37 -592 -8 -339 -31 -750 -44 -762 -1
-1 -12 6 -24 17 -16 15 -22 32 -22 65 0 53 -12 88 -44 126 -21 25 -24 36 -19
86 4 47 1 68 -17 105 -12 26 -27 52 -35 58 -9 7 -11 30 -7 79 4 59 1 77 -19
118 -20 40 -23 60 -21 123 3 69 1 79 -27 123 -29 45 -30 51 -25 120 6 62 3 79
-15 114 -19 38 -19 44 -6 69 23 44 29 110 15 160 -11 39 -10 50 5 84 14 32 17
54 11 109 -5 64 -4 73 19 107 29 43 33 123 11 187 -13 36 -12 41 10 80 25 45
31 107 15 164 -8 27 -5 39 22 80 24 38 32 63 36 120 5 53 12 78 27 95 29 32
44 81 44 143 0 39 8 68 30 110 20 37 30 72 30 100 0 39 4 45 53 82 49 38 67
44 67 23z m-332 -127 c91 -134 110 -205 75 -278 -15 -32 -33 -47 -33 -27 0 5
-34 61 -75 127 l-74 118 15 36 c16 39 42 81 49 81 2 0 22 -26 43 -57z m-26
-296 c55 -92 65 -147 36 -198 -12 -22 -26 -38 -30 -37 -21 7 -158 205 -158
228 0 26 32 103 52 127 13 16 35 -12 100 -120z m-96 -200 c54 -72 104 -171
104 -207 0 -14 -7 -36 -16 -49 l-16 -23 -65 64 c-80 78 -123 134 -123 162 0
30 48 128 59 122 5 -4 31 -34 57 -69z m-14 -281 c51 -58 72 -93 84 -132 17
-59 12 -105 -13 -126 -13 -10 -19 -8 -37 13 -11 15 -54 63 -93 108 -79 88 -83
99 -57 175 11 33 21 46 32 44 9 -2 47 -39 84 -82z m-74 -207 c26 -28 64 -75
85 -106 31 -47 37 -63 37 -109 0 -30 -5 -54 -10 -54 -16 0 -191 161 -203 187
-8 18 -7 36 7 78 9 30 21 55 27 55 5 0 31 -23 57 -51z m2 -260 c44 -44 87 -94
96 -110 19 -38 15 -123 -6 -127 -19 -3 -173 117 -197 155 -27 42 -15 163 17
163 6 0 46 -36 90 -81z m-71 -196 c81 -61 171 -156 181 -192 12 -44 12 -62 1
-79 -10 -17 -57 6 -163 76 -81 53 -95 86 -77 171 6 28 13 51 16 51 4 0 22 -12
42 -27z m70 -296 c30 -18 80 -57 112 -87 51 -48 59 -61 59 -92 0 -71 -2 -71
-128 1 -127 73 -142 89 -142 162 0 71 5 71 99 16z m8961 -53 c8 -53 -3 -117
-28 -154 l-16 -25 -12 42 c-12 40 -6 139 12 197 10 30 36 -5 44 -60z m86 -242
c-3 -23 -12 -55 -20 -70 -15 -28 -81 -102 -90 -102 -4 0 -6 34 -6 76 0 73 2
79 47 151 l47 75 13 -43 c8 -24 11 -63 9 -87z m-8995 47 c116 -68 159 -117
159 -181 0 -51 -12 -50 -120 7 -138 73 -152 88 -158 166 l-5 62 29 -7 c15 -4
58 -25 95 -47z m9055 -164 c3 -20 4 -62 2 -95 -4 -52 -9 -66 -44 -107 -47 -55
-111 -109 -120 -100 -3 3 -7 41 -8 84 l-1 78 50 47 c28 25 61 64 75 87 14 22
28 41 32 41 4 0 10 -16 14 -35z m-9014 -77 c55 -29 115 -68 134 -86 30 -29 34
-39 34 -82 0 -28 -3 -50 -6 -50 -8 0 -238 102 -246 109 -23 20 -41 161 -20
161 2 0 50 -24 104 -52z m9089 -160 c4 -24 5 -61 2 -83 -7 -48 -67 -132 -126
-175 -37 -27 -42 -28 -58 -14 -27 24 -42 70 -35 107 5 25 23 49 72 92 36 31
77 75 91 97 30 45 42 40 54 -24z m-9026 -77 c97 -45 151 -91 164 -138 12 -42
4 -67 -18 -58 -9 4 -58 20 -110 36 -52 16 -101 35 -108 41 -22 18 -50 79 -58
127 l-7 44 28 -7 c16 -4 65 -24 109 -45z m9081 -153 c13 -95 0 -132 -78 -214
-39 -41 -76 -74 -84 -74 -25 0 -54 51 -54 97 0 43 3 48 95 138 52 52 95 99 95
106 0 31 20 -10 26 -53z m-8975 -88 c97 -35 136 -63 148 -106 15 -53 6 -56
-104 -39 -140 23 -161 33 -190 97 -14 29 -25 61 -25 72 0 16 5 18 43 13 24 -3
82 -20 128 -37z m8691 8 c7 -13 13 -56 13 -98 0 -67 3 -79 29 -113 27 -36 28
-39 16 -82 -15 -55 -8 -97 27 -149 23 -36 25 -43 13 -70 -29 -70 -21 -137 22
-198 16 -24 17 -33 8 -70 -13 -48 -8 -85 21 -145 20 -41 20 -44 4 -94 -20 -58
-16 -103 15 -174 19 -44 19 -47 2 -72 -26 -41 -21 -130 10 -184 25 -44 25 -44
7 -89 -22 -56 -23 -100 -4 -147 14 -33 14 -40 -6 -94 l-21 -58 21 -72 22 -71
-20 -44 c-26 -55 -26 -75 -1 -142 l20 -53 -21 -31 c-26 -36 -35 -100 -20 -152
9 -36 8 -43 -24 -95 -38 -60 -42 -93 -24 -165 9 -36 8 -49 -5 -74 -19 -37 -23
-79 -12 -148 5 -32 4 -54 -2 -58 -6 -4 -13 31 -16 91 -4 54 -13 166 -21 248
-8 83 -16 283 -20 445 l-6 295 -27 22 -27 23 -5 607 c-6 680 -1 635 -81 725
-33 38 -39 50 -30 61 20 25 101 310 108 380 6 71 14 81 35 45z m334 -164 c13
-85 -37 -177 -131 -241 l-50 -35 -22 27 c-16 18 -23 39 -23 66 0 35 6 45 52
87 74 68 148 145 148 157 1 23 20 -23 26 -61z m-8966 -48 c87 -13 97 -17 122
-47 15 -18 25 -36 21 -42 -10 -17 -88 -47 -123 -47 -20 0 -46 7 -59 16 -26 18
-81 101 -81 121 0 16 3 16 120 -1z m9001 -173 c2 -79 -3 -119 -21 -153 -22
-44 -85 -102 -139 -130 l-40 -20 -16 29 c-35 69 -11 137 69 194 30 22 71 56
92 78 21 21 42 39 46 39 4 0 8 -17 9 -37z m-8921 -25 c0 -5 0 -24 0 -43 0 -19
-4 -35 -9 -35 -14 0 -53 68 -46 80 8 12 56 10 55 -2z m8964 -190 c11 -41 6
-108 -9 -146 -29 -70 -162 -183 -192 -164 -18 12 -33 50 -33 82 0 49 26 86 88
129 32 21 73 57 92 79 41 48 46 49 54 20z m20 -326 c0 -94 -61 -179 -165 -232
-47 -25 -52 -22 -70 45 -16 58 13 112 88 164 32 22 74 54 93 70 44 37 55 28
54 -47z m15 -265 c1 -68 -17 -104 -89 -170 -99 -92 -127 -94 -148 -15 -8 30
-6 44 10 77 24 49 40 64 138 134 84 59 88 58 89 -26z m12 -219 c5 -112 -10
-148 -97 -227 -91 -84 -134 -78 -134 18 0 52 23 96 66 129 16 12 54 42 84 66
30 25 61 45 68 45 7 1 13 -12 13 -31z m4 -324 c-10 -68 -107 -163 -192 -188
-42 -13 -70 85 -39 130 8 11 44 35 79 52 35 18 84 50 108 71 l44 39 3 -31 c2
-17 1 -50 -3 -73z m0 -253 c-5 -36 -17 -54 -61 -98 -29 -30 -75 -63 -100 -74
-43 -19 -48 -20 -63 -5 -10 11 -16 34 -16 64 0 64 28 101 112 145 37 20 82 47
98 61 l30 24 3 -36 c2 -21 1 -57 -3 -81z m-5 -188 c0 -97 -65 -185 -171 -232
-53 -24 -66 -19 -79 31 -20 71 9 111 120 168 43 23 86 50 96 61 26 29 34 23
34 -28z m-40 -328 c-12 -25 -36 -57 -53 -71 -42 -36 -123 -73 -167 -76 l-35
-3 -3 47 c-2 26 2 57 8 68 6 12 55 42 113 69 56 26 113 57 127 69 l25 20 3
-39 c2 -26 -4 -56 -18 -84z m-10 -200 c-25 -84 -97 -144 -197 -166 -64 -15
-73 -8 -73 55 0 30 7 45 34 72 19 19 41 34 50 34 24 0 161 67 177 86 13 16 14
15 17 -12 2 -16 -2 -47 -8 -69z m-4 -189 c-11 -70 -54 -127 -123 -164 -34 -18
-81 -35 -106 -38 l-45 -6 -7 41 c-11 68 14 98 115 139 47 19 103 46 125 61 22
15 42 23 44 19 1 -5 0 -29 -3 -52z m-17 -215 c-15 -94 -66 -154 -161 -189 -96
-35 -107 -36 -114 -7 -9 36 2 94 22 116 9 10 44 27 79 39 34 11 86 36 116 55
30 19 57 35 60 35 3 0 3 -22 -2 -49z m-42 -231 c-8 -64 -45 -127 -91 -160 -45
-30 -161 -74 -175 -65 -21 12 -22 75 -1 115 22 43 57 65 150 94 30 9 69 25 85
35 17 11 32 20 34 20 2 1 1 -17 -2 -39z m-62 -266 c-17 -58 -49 -105 -91 -133
-38 -26 -126 -61 -154 -61 -25 0 -43 43 -35 81 12 53 41 76 138 109 50 17 103
37 117 44 35 20 41 12 25 -40z m-40 -230 c-12 -81 -121 -175 -232 -199 -30 -6
-34 -4 -44 22 -28 74 23 135 148 177 43 15 89 33 103 41 14 7 27 12 29 10 2
-2 0 -25 -4 -51z m-41 -221 c-15 -88 -75 -154 -172 -192 -63 -25 -98 -27 -106
-5 -23 60 19 133 91 160 27 9 77 30 113 45 36 15 69 28 73 28 4 1 5 -16 1 -36z
m-62 -250 c-6 -59 -24 -97 -66 -136 -39 -36 -120 -75 -165 -79 -31 -3 -36 0
-44 29 -21 70 45 144 163 183 40 13 79 30 88 37 27 20 30 16 24 -34z m-46
-240 c-20 -82 -134 -194 -213 -209 -40 -8 -53 4 -53 50 0 65 38 99 185 160 80
33 89 33 81 -1z m-14 -224 c-5 -76 -17 -89 -150 -157 -67 -35 -127 -60 -133
-56 -15 9 -5 78 15 108 8 13 59 46 113 74 54 28 107 58 118 66 30 23 40 14 37
-35z m-22 -207 c0 -43 -28 -117 -54 -141 -16 -15 -54 -28 -121 -41 -121 -25
-125 -25 -125 1 0 55 81 129 203 184 73 33 97 33 97 -3z m-54 -257 c11 -60 -3
-99 -50 -143 -50 -46 -87 -55 -201 -50 l-70 3 -3 50 c-4 70 22 108 85 129 41
13 182 42 220 45 7 1 15 -15 19 -34z m-296 -374 c-3 -38 -8 -73 -13 -77 -9 -9
-9 23 -1 94 10 76 20 64 14 -17z m107 37 c-3 -7 -5 -2 -5 12 0 14 2 19 5 13 2
-7 2 -19 0 -25z m-214 -40 c-3 -24 -10 -47 -15 -53 -6 -6 -7 0 -4 18 3 15 8
38 11 52 9 40 14 29 8 -17z m-63 -71 c0 -2 -10 -12 -22 -23 l-23 -19 19 23
c18 21 26 27 26 19z m36 -73 c-55 -48 -70 -42 -18 7 24 23 46 38 50 34 4 -4
-11 -22 -32 -41z m-227 -1088 c27 -27 35 -44 38 -83 4 -39 1 -51 -15 -66 -24
-22 -49 -17 -92 20 -30 25 -70 90 -70 114 0 7 10 23 22 37 30 31 71 23 117
-22z m-7544 -232 c9 -15 48 -110 87 -213 38 -102 79 -201 90 -218 11 -18 18
-33 15 -33 -2 0 -44 13 -93 29 -123 41 -257 64 -326 58 -32 -3 -58 -4 -58 -2
0 2 37 48 81 102 103 124 121 152 150 236 12 37 26 67 30 67 4 0 14 -12 24
-26z m7821 -123 c21 -18 119 -71 216 -119 98 -48 178 -90 178 -93 0 -3 -24 -9
-54 -13 -65 -7 -161 -40 -405 -140 -101 -41 -188 -73 -193 -70 -20 12 -4 36
52 75 33 23 74 62 90 87 28 42 30 52 30 131 0 48 -9 126 -20 175 -11 50 -20
96 -20 104 0 8 20 -12 44 -45 24 -33 61 -74 82 -92z m-3485 -187 c289 -26 679
-36 765 -20 36 7 53 3 126 -30 l86 -38 -66 -48 c-37 -26 -82 -51 -102 -54 -44
-8 -85 -29 -130 -65 -27 -23 -45 -29 -81 -29 -30 0 -62 -9 -92 -25 -36 -19
-61 -24 -110 -23 -45 1 -77 -5 -112 -21 -28 -13 -75 -25 -105 -27 -30 -3 -77
-15 -103 -27 -43 -18 -53 -20 -93 -9 -58 16 -83 15 -135 -3 -36 -13 -52 -14
-96 -4 -41 9 -65 9 -105 1 -47 -11 -59 -10 -108 9 -43 16 -66 19 -105 14 -70
-10 -73 -10 -137 8 -49 14 -65 14 -107 3 -45 -11 -53 -11 -79 6 -38 24 -116
33 -164 20 -31 -9 -41 -7 -70 13 -25 17 -54 24 -126 29 -75 6 -101 12 -129 32
-29 20 -48 24 -105 24 -60 0 -75 4 -112 29 -54 37 -111 53 -168 45 -37 -5 -48
-2 -73 18 -17 14 -43 32 -60 41 -34 17 -35 17 69 41 38 9 90 30 116 46 45 29
52 30 161 31 63 0 269 9 459 18 516 27 750 26 1091 -5z m3939 -34 c12 -8 11
-10 -7 -10 -13 0 -23 5 -23 10 0 13 11 13 30 0z m-2614 -110 c189 -16 224 -38
117 -74 -91 -31 -182 -12 -255 55 l-43 38 30 -4 c17 -3 84 -9 151 -15z m-3405
-95 c17 -49 34 -94 40 -99 17 -18 9 -26 -26 -26 -43 0 -100 28 -137 67 -28 29
-74 121 -65 130 8 7 99 21 130 20 26 -2 30 -8 58 -92z m3201 55 c24 -23 71
-55 106 -72 34 -17 62 -34 62 -39 0 -4 -20 -15 -45 -25 -60 -23 -138 -14 -205
22 -54 29 -114 88 -107 107 6 19 71 47 109 47 31 0 46 -8 80 -40z m-5212 4 c0
-2 -7 -4 -15 -4 -8 0 -15 4 -15 10 0 5 7 7 15 4 8 -4 15 -8 15 -10z m1776 -36
c7 -22 9 -40 4 -43 -22 -14 -150 41 -150 64 0 6 19 12 43 14 81 8 89 5 103
-35z m423 16 c22 -18 37 -47 56 -104 13 -44 31 -96 40 -116 l15 -36 -37 7
c-81 15 -140 67 -184 160 -28 59 -36 95 -22 108 3 4 28 7 54 7 36 0 55 -6 78
-26z m237 -63 c26 -16 36 -33 54 -92 12 -41 31 -91 41 -111 26 -51 24 -60 -8
-52 -61 13 -134 56 -158 92 -21 33 -65 142 -65 163 0 23 98 23 136 0z m2592
-32 c37 -29 86 -60 110 -70 24 -10 41 -23 38 -28 -4 -5 -26 -17 -51 -27 -92
-35 -214 2 -294 89 -21 23 -22 29 -10 43 19 24 68 43 107 44 24 0 50 -13 100
-51z m-2321 -65 c13 -14 26 -37 29 -52 9 -36 41 -100 70 -139 13 -17 24 -34
24 -38 0 -13 -97 8 -142 31 -51 26 -99 86 -123 155 -24 68 -20 87 18 91 42 5
96 -16 124 -48z m2019 17 c18 -5 65 -34 105 -65 41 -31 84 -59 97 -62 31 -8
28 -18 -13 -37 -48 -23 -148 -22 -200 2 -40 18 -135 96 -135 110 0 14 74 61
95 61 11 0 34 -4 51 -9z m-1822 -35 c29 -12 41 -29 79 -108 25 -51 56 -108 67
-125 l22 -33 -26 0 c-69 0 -170 81 -230 182 -40 69 -32 85 47 97 4 0 23 -5 41
-13z m1650 -74 c33 -35 82 -77 110 -92 l49 -28 -44 -12 c-93 -25 -193 9 -263
92 -50 58 -47 72 17 96 28 11 56 17 62 14 5 -3 36 -35 69 -70z m-1385 21 c22
-19 133 -238 125 -246 -9 -8 -103 20 -135 40 -61 39 -140 170 -125 208 8 22
108 20 135 -2z m214 -14 c16 -7 36 -37 60 -88 19 -42 47 -95 62 -118 l26 -43
-36 0 c-48 0 -94 20 -133 59 -37 38 -79 106 -92 151 -8 27 -6 32 13 40 31 12
72 12 100 -1z m965 -64 c34 -41 80 -85 102 -97 22 -13 38 -27 37 -33 -8 -22
-84 -28 -139 -10 -59 19 -97 48 -146 111 -41 52 -38 75 8 91 63 21 72 17 138
-62z m-730 39 c13 -9 34 -41 48 -71 13 -31 40 -78 59 -104 46 -64 45 -73 -6
-65 -47 7 -89 27 -137 63 -43 32 -107 160 -91 180 16 18 100 17 127 -3z m196
0 c9 -4 44 -47 78 -96 34 -49 76 -101 94 -115 45 -33 34 -47 -31 -40 -97 10
-168 63 -220 167 -14 27 -25 53 -25 58 0 5 15 14 33 20 40 13 51 14 71 6z
m288 -36 c20 -24 62 -72 92 -108 l55 -65 -57 -3 c-31 -2 -74 2 -95 8 -44 13
-115 75 -158 137 l-29 42 27 15 c16 8 50 15 77 16 46 0 53 -3 88 -42z"/>
<path d="M8770 11818 c-32 -15 -72 -22 -142 -26 -128 -6 -133 -24 -11 -37 l59
-7 31 -70 c26 -55 30 -74 23 -94 -18 -46 -12 -101 13 -130 20 -23 31 -27 72
-26 61 0 91 23 128 92 53 102 25 180 -64 180 -33 0 -50 6 -71 27 -15 15 -28
31 -28 35 0 5 27 20 60 35 33 14 57 29 54 34 -9 16 -78 8 -124 -13z m148 -170
c45 -45 -34 -188 -104 -188 -37 0 -67 36 -60 72 16 81 123 157 164 116z"/>
<path d="M1172 1383 c-56 -37 -97 -116 -87 -169 10 -54 45 -84 99 -84 37 0 48
-5 70 -31 14 -17 26 -34 26 -37 0 -4 -24 -16 -53 -27 -28 -11 -52 -24 -52 -30
0 -20 56 -16 118 9 37 14 95 27 145 32 45 3 80 9 77 13 -4 3 -36 11 -71 16
l-66 10 -29 70 c-27 63 -29 74 -19 114 14 56 5 95 -27 121 -35 28 -81 25 -131
-7z m117 -37 c38 -45 -50 -176 -118 -176 -86 0 -52 155 43 195 32 14 52 8 75
-19z"/>
</g>
</svg>
